<svg width="456" height="353" viewBox="0 0 456 353" fill="none" xmlns="http://www.w3.org/2000/svg">
<path d="M1 60.9941L52.6738 18.0786M1 60.9941L228.277 350.893M1 60.9941L107.851 99.9684M1 60.9941H149.015M52.6738 18.0786H228.277M52.6738 18.0786L149.015 60.9941M52.6738 18.0786L97.3409 1M228.277 18.0786V99.9684M228.277 18.0786L149.015 60.9941M228.277 18.0786L97.3409 1M228.277 350.893V99.9684M228.277 350.893L107.851 99.9684M107.851 99.9684L149.015 60.9941M107.851 99.9684H228.277M149.015 60.9941L228.277 99.9684M97.3409 1H228.277" stroke="white"/>
<path d="M455.116 60.9941L403.442 18.0786M455.116 60.9941L227.839 350.893M455.116 60.9941L348.265 99.9684M455.116 60.9941H307.101M403.442 18.0786H227.839M403.442 18.0786L307.101 60.9941M403.442 18.0786L358.775 1M227.839 18.0786V99.9684M227.839 18.0786L307.101 60.9941M227.839 18.0786L358.775 1M227.839 350.893V99.9684M227.839 350.893L348.265 99.9684M348.265 99.9684L307.101 60.9941M348.265 99.9684H227.839M307.101 60.9941L227.839 99.9684M358.775 1H227.839" stroke="white"/>
</svg>
