<svg width="834" height="644" viewBox="0 0 834 644" fill="none" xmlns="http://www.w3.org/2000/svg">
<path d="M1 110.835L95.6027 32.267M1 110.835L417.092 641.573M1 110.835L196.619 182.188M1 110.835H271.981M95.6027 32.267H417.092M95.6027 32.267L271.981 110.835M95.6027 32.267L177.378 1M417.092 32.267V182.188M417.092 32.267L271.981 110.835M417.092 32.267L177.378 1M417.092 641.573V182.188M417.092 641.573L196.619 182.188M196.619 182.188L271.981 110.835M196.619 182.188H417.092M271.981 110.835L417.092 182.188M177.378 1H417.092" stroke="white"/>
<path d="M832.382 110.835L737.779 32.267M832.382 110.835L416.29 641.573M832.382 110.835L636.763 182.188M832.382 110.835H561.401M737.779 32.267H416.29M737.779 32.267L561.401 110.835M737.779 32.267L656.004 1M416.29 32.267V182.188M416.29 32.267L561.401 110.835M416.29 32.267L656.004 1M416.29 641.573V182.188M416.29 641.573L636.763 182.188M636.763 182.188L561.401 110.835M636.763 182.188H416.29M561.401 110.835L416.29 182.188M656.004 1H416.29" stroke="white"/>
</svg>
